HIERARCHY
ROOT Hips
{
 OFFSET 0.000000 0.000000 0.000000
 CHANNELS 6 Xposition Yposition Zposition Yrotation Xrotation Zrotation
 JOINT Chest
 {
  OFFSET 0.000000 9.588913 -0.003946
  CHANNELS 3 Yrotation Xrotation Zrotation
  JOINT Chest2
  {
   OFFSET 0.000000 9.541882 0.008053
   CHANNELS 3 Yrotation Xrotation Zrotation
   JOINT Chest3
   {
    OFFSET 0.000000 9.501360 0.000000
    CHANNELS 3 Yrotation Xrotation Zrotation
    JOINT Chest4
    {
     OFFSET 0.000000 9.491660 0.000000
     CHANNELS 3 Yrotation Xrotation Zrotation
     JOINT Neck
     {
      OFFSET 0.000000 14.331917 0.000000
      CHANNELS 3 Yrotation Xrotation Zrotation
      JOINT Head
      {
       OFFSET 0.000000 8.884799 0.017034
       CHANNELS 3 Yrotation Xrotation Zrotation
       End Site
       {
        OFFSET 0.000000 16.896195 0.008993
       }
      }
     }
     JOINT RightCollar
     {
      OFFSET -2.923010 9.499495 0.000000
      CHANNELS 3 Yrotation Xrotation Zrotation
      JOINT RightShoulder
      {
       OFFSET -13.795216 0.000000 0.000000
       CHANNELS 3 Yrotation Xrotation Zrotation
       JOINT RightElbow
       {
        OFFSET -30.272209 0.000000 0.000000
        CHANNELS 3 Yrotation Xrotation Zrotation
        JOINT RightWrist
        {
         OFFSET -24.478199 0.000000 0.000000
         CHANNELS 3 Yrotation Xrotation Zrotation
         End Site
         {
          OFFSET -18.090752 0.000000 0.000000
         }
        }
       }
      }
     }
     JOINT LeftCollar
     {
      OFFSET 2.923010 9.499495 0.000000
      CHANNELS 3 Yrotation Xrotation Zrotation
      JOINT LeftShoulder
      {
       OFFSET 13.795216 0.000000 0.000000
       CHANNELS 3 Yrotation Xrotation Zrotation
       JOINT LeftElbow
       {
        OFFSET 30.272209 0.000000 0.000000
        CHANNELS 3 Yrotation Xrotation Zrotation
        JOINT LeftWrist
        {
         OFFSET 24.478199 0.000000 0.000000
         CHANNELS 3 Yrotation Xrotation Zrotation
         End Site
         {
          OFFSET 18.090752 0.000000 0.000000
         }
        }
       }
      }
     }
    }
   }
  }
 }
 JOINT RightHip
 {
  OFFSET -7.826875 0.019532 0.001973
  CHANNELS 3 Yrotation Xrotation Zrotation
  JOINT RightKnee
  {
   OFFSET 0.000000 -40.546152 -0.001885
   CHANNELS 3 Yrotation Xrotation Zrotation
   JOINT RightAnkle
   {
    OFFSET 0.000000 -39.417092 -0.003189
    CHANNELS 3 Yrotation Xrotation Zrotation
    JOINT RightToe
    {
     OFFSET 0.000000 -7.579396 17.243563
     CHANNELS 3 Yrotation Xrotation Zrotation
     End Site
     {
      OFFSET 0.000000 -1.500329 6.694466
     }
    }
   }
  }
 }
 JOINT LeftHip
 {
  OFFSET 7.826875 0.019532 0.001973
  CHANNELS 3 Yrotation Xrotation Zrotation
  JOINT LeftKnee
  {
   OFFSET 0.000000 -40.546152 -0.001885
   CHANNELS 3 Yrotation Xrotation Zrotation
   JOINT LeftAnkle
   {
    OFFSET 0.000000 -39.417092 -0.003189
    CHANNELS 3 Yrotation Xrotation Zrotation
    JOINT LeftToe
    {
     OFFSET 0.000000 -7.579396 17.243563
     CHANNELS 3 Yrotation Xrotation Zrotation
     End Site
     {
      OFFSET 0.000000 -1.500329 6.694466
     }
    }
   }
  }
 }
}
MOTION
Frames: 8
Frame Time: 0.008333
0.000000 87.345680 0.000000 0.000000 -5.767889 0.000000 0.000000 11.653876 0.000000 0.000000 -5.885988 0.000000 0.000000 -0.000000 0.000000 0.000000 -0.000000 0.000000 0.000000 12.528808 0.000000 0.000000 0.711711 0.000000 0.000000 -0.000000 0.000000 0.000000 -0.000000 0.000000 2.309063 -0.000000 0.000000 -2.309063 -0.000000 -0.000000 0.000000 -0.000000 0.000000 0.000000 0.000000 0.000000 -2.309063 0.000000 0.000000 2.309063 -0.000000 0.000000 0.000000 8.520374 0.000000 0.000000 1.905768 0.000000 -0.000000 -4.658254 0.000000 0.000000 -0.000000 0.000000 0.000000 8.520374 0.000000 0.000000 1.905768 0.000000 -0.000000 -4.658254 0.000000 0.000000 -0.000000 0.000000
-10.922434 89.119347 -3.661847 -138.271795 -8.386235 -0.692256 4.095493 3.940703 0.802322 2.317469 2.258032 0.463711 2.900250 2.819458 0.594007 2.317469 2.258032 0.463711 -0.799274 23.484989 -0.296016 -0.794069 -0.470561 -0.136627 0.748119 0.749884 -1.565795 -19.901149 3.011967 91.067507 8.405576 3.599277 2.295052 1.932787 -4.244889 -1.396512 -8.616099 0.295884 -0.757982 19.512754 2.072192 -88.204696 -2.362112 -8.742721 -4.330476 -2.425610 -0.091828 0.385084 -12.478288 10.197251 -0.835713 2.454223 3.615847 -0.393060 -0.746950 -5.590152 -0.165840 -0.009413 -0.095798 0.000475 13.755633 10.768380 2.349870 -3.354644 2.177367 0.414033 -0.097924 -5.776309 -0.288137 0.018905 0.100789 -0.029302
-10.927924 89.119188 -3.663439 -138.274562 -8.377668 -0.683985 4.097170 3.941433 0.786556 2.317230 2.257364 0.464179 2.899953 2.818620 0.594587 2.317230 2.257364 0.464179 -0.797289 23.490363 -0.297808 -0.791539 -0.464112 -0.139020 0.758034 0.752568 -1.567017 -19.897542 2.999399 91.060198 8.407332 3.607681 2.301407 1.939707 -4.251114 -1.400618 -8.626063 0.304045 -0.755413 19.510856 2.070135 -88.207056 -2.362287 -8.729670 -4.332454 -2.418896 -0.098054 0.383280 -12.472803 10.184572 -0.843809 2.452075 3.622757 -0.395335 -0.744502 -5.570912 -0.159912 -0.011372 -0.118274 -0.001354 13.776752 10.768998 2.344411 -3.354567 2.171270 0.409511 -0.110907 -5.792113 -0.280872 0.021457 0.112887 -0.023771
-10.932376 89.118978 -3.667315 -138.273506 -8.367821 -0.690289 4.097467 3.940440 0.786281 2.317552 2.256307 0.464437 2.900355 2.817298 0.594905 2.317552 2.256307 0.464437 -0.798599 23.496367 -0.299113 -0.792677 -0.456871 -0.140137 0.763573 0.754737 -1.569840 -19.891643 2.988945 91.053787 8.407227 3.613278 2.306819 1.942287 -4.255307 -1.403250 -8.639485 0.313463 -0.753747 19.504551 2.065965 -88.208840 -2.360567 -8.718377 -4.330350 -2.412920 -0.104090 0.381119 -12.467928 10.173067 -0.837162 2.450346 3.633981 -0.396695 -0.743013 -5.574064 -0.155346 -0.013007 -0.121327 -0.002855 13.793007 10.765115 2.354863 -3.350012 2.163503 0.403854 -0.121258 -5.785217 -0.277335 0.023021 0.105913 -0.017989
-10.937489 89.118653 -3.671696 -138.271077 -8.356844 -0.694619 4.098047 3.939803 0.786620 2.318036 2.255329 0.464530 2.900960 2.816074 0.595018 2.318036 2.255329 0.464530 -0.801409 23.501858 -0.300621 -0.795385 -0.450234 -0.141129 0.766482 0.756138 -1.577488 -19.881410 2.979323 91.051391 8.406591 3.613768 2.310057 1.942414 -4.261139 -1.403453 -8.656399 0.321396 -0.752967 19.498798 2.062391 -88.210872 -2.359156 -8.707945 -4.325587 -2.408083 -0.105411 0.380172 -12.464718 10.160309 -0.832655 2.447497 3.645915 -0.398115 -0.741442 -5.578942 -0.150940 -0.014514 -0.123136 -0.003803 13.805347 10.760272 2.362602 -3.346141 2.157175 0.399428 -0.130295 -5.776633 -0.277620 0.025387 0.098413 -0.011150
-10.943010 89.118242 -3.677038 -138.268434 -8.347368 -0.698120 4.099039 3.940409 0.787168 2.318451 2.255109 0.464566 2.901478 2.815798 0.595065 2.318451 2.255109 0.464566 -0.802764 23.506275 -0.301974 -0.796553 -0.444903 -0.142285 0.769749 0.758076 -1.586236 -19.869783 2.967477 91.051572 8.405095 3.612068 2.312053 1.941863 -4.268640 -1.403243 -8.674681 0.326596 -0.751726 19.496205 2.059654 -88.212903 -2.356451 -8.698681 -4.319819 -2.404046 -0.102954 0.378778 -12.462680 10.149252 -0.828540 2.445080 3.658590 -0.401231 -0.740798 -5.585593 -0.145731 -0.016279 -0.124138 -0.004673 13.814066 10.755862 2.369344 -3.345657 2.154625 0.396810 -0.135660 -5.768767 -0.280383 0.028392 0.091163 -0.004993
-10.948702 89.117748 -3.683502 -138.265854 -8.340690 -0.701026 4.100861 3.940989 0.787544 2.319090 2.255245 0.464430 2.902276 2.815969 0.594899 2.319090 2.255245 0.464430 -0.802882 23.511474 -0.303282 -0.796402 -0.438641 -0.143676 0.773169 0.763388 -1.592388 -19.862491 2.954312 91.049619 8.403377 3.611427 2.315629 1.940621 -4.272623 -1.403510 -8.691895 0.333915 -0.749186 19.494434 2.056135 -88.216183 -2.350441 -8.689241 -4.314347 -2.402052 -0.101325 0.378434 -12.462375 10.140536 -0.824716 2.444832 3.673391 -0.406102 -0.741476 -5.594600 -0.140562 -0.017894 -0.124780 -0.004917 13.821128 10.753767 2.375216 -3.345767 2.154417 0.397283 -0.140683 -5.761665 -0.284813 0.031544 0.084581 -0.000354
-10.954332 89.117122 -3.690819 -138.262198 -8.335882 -0.702536 4.102703 3.941090 0.787869 2.319815 2.255593 0.463744 2.903179 2.816407 0.594047 2.319815 2.255593 0.463744 -0.802730 23.518303 -0.305473 -0.795764 -0.430419 -0.146083 0.776718 0.770496 -1.597073 -19.860072 2.944838 91.045378 8.404854 3.612196 2.321428 1.938559 -4.272036 -1.402392 -8.706658 0.343603 -0.744230 19.491785 2.052730 -88.222349 -2.345793 -8.680666 -4.308254 -2.399974 -0.099917 0.379835 -12.464939 10.134251 -0.822923 2.446260 3.687659 -0.410883 -0.742652 -5.604862 -0.136464 -0.019189 -0.124842 -0.004582 13.828709 10.753865 2.379328 -3.346138 2.154547 0.401469 -0.148797 -5.754769 -0.291654 0.034943 0.078871 0.003606
